<svg width="7" height="12" viewBox="0 0 7 12" fill="none" xmlns="http://www.w3.org/2000/svg">
<path d="M3.06775 11.0105V9.72352H4.21725V11.0105H3.06775ZM3.06775 2.19402V0.901515H4.21725V2.19402H3.06775ZM3.70025 10.081C3.15025 10.081 2.65892 9.98202 2.22625 9.78402C1.79358 9.58602 1.43792 9.30552 1.15925 8.94252C0.88425 8.57585 0.704583 8.14318 0.62025 7.64452L1.75875 7.46302C1.86875 7.93235 2.10342 8.30635 2.46275 8.58502C2.82208 8.86002 3.25292 8.99752 3.75525 8.99752C4.25392 8.99752 4.65908 8.87835 4.97075 8.64002C5.28608 8.40168 5.44375 8.09735 5.44375 7.72702C5.44375 7.46302 5.36308 7.24852 5.20175 7.08352C5.04408 6.91852 4.78558 6.77918 4.42625 6.66552L2.56725 6.09352C1.46725 5.75252 0.91725 5.09252 0.91725 4.11352C0.91725 3.65152 1.02725 3.25002 1.24725 2.90902C1.47092 2.56802 1.78442 2.30402 2.18775 2.11702C2.59108 1.93002 3.06225 1.83652 3.60125 1.83652C4.11825 1.84385 4.57658 1.93918 4.97625 2.12252C5.37958 2.30585 5.71325 2.56985 5.97725 2.91452C6.24492 3.25918 6.43008 3.67352 6.53275 4.15752L5.36125 4.36652C5.30992 4.08418 5.20175 3.83485 5.03675 3.61852C4.87542 3.40218 4.67008 3.23352 4.42075 3.11252C4.17508 2.99152 3.89825 2.92918 3.59025 2.92552C3.30058 2.91818 3.04025 2.96402 2.80925 3.06302C2.58192 3.15835 2.40042 3.29402 2.26475 3.47002C2.13275 3.64235 2.06675 3.83852 2.06675 4.05852C2.06675 4.30052 2.16025 4.50585 2.34725 4.67452C2.53425 4.84318 2.82942 4.98802 3.23275 5.10902L4.69025 5.53252C5.35758 5.73052 5.83975 5.99635 6.13675 6.33002C6.43375 6.66368 6.58225 7.10735 6.58225 7.66102C6.58225 8.14502 6.46125 8.56852 6.21925 8.93152C5.98092 9.29085 5.64542 9.57318 5.21275 9.77852C4.78008 9.98018 4.27592 10.081 3.70025 10.081Z" fill="#7065F0"/>
</svg>
