<svg width="25" height="25" viewBox="0 0 25 25" fill="none" xmlns="http://www.w3.org/2000/svg">
<path d="M13.9688 22.416H5.96875C3.96875 22.416 2.96875 21.416 2.96875 19.416V11.416C2.96875 9.41602 3.96875 8.41602 5.96875 8.41602H10.9688V19.416C10.9688 21.416 11.9688 22.416 13.9688 22.416Z" stroke="white" stroke-width="1.5" stroke-miterlimit="10" stroke-linecap="round" stroke-linejoin="round"/>
<path d="M11.0787 4.41602C10.9987 4.71602 10.9688 5.04602 10.9688 5.41602V8.41602H5.96875V6.41602C5.96875 5.31602 6.86875 4.41602 7.96875 4.41602H11.0787Z" stroke="white" stroke-width="1.5" stroke-miterlimit="10" stroke-linecap="round" stroke-linejoin="round"/>
<path d="M14.9688 8.41602V13.416" stroke="white" stroke-width="1.5" stroke-miterlimit="10" stroke-linecap="round" stroke-linejoin="round"/>
<path d="M18.9688 8.41602V13.416" stroke="white" stroke-width="1.5" stroke-miterlimit="10" stroke-linecap="round" stroke-linejoin="round"/>
<path d="M17.9688 17.416H15.9688C15.4187 17.416 14.9688 17.866 14.9688 18.416V22.416H18.9688V18.416C18.9688 17.866 18.5188 17.416 17.9688 17.416Z" stroke="white" stroke-width="1.5" stroke-miterlimit="10" stroke-linecap="round" stroke-linejoin="round"/>
<path d="M6.96875 13.416V17.416" stroke="white" stroke-width="1.5" stroke-miterlimit="10" stroke-linecap="round" stroke-linejoin="round"/>
<path d="M10.9688 19.416V5.41602C10.9688 3.41602 11.9688 2.41602 13.9688 2.41602H19.9688C21.9688 2.41602 22.9688 3.41602 22.9688 5.41602V19.416C22.9688 21.416 21.9688 22.416 19.9688 22.416H13.9688C11.9688 22.416 10.9688 21.416 10.9688 19.416Z" stroke="white" stroke-width="1.5" stroke-miterlimit="10" stroke-linecap="round" stroke-linejoin="round"/>
</svg>
