<svg width="161" height="48" viewBox="0 0 161 48" fill="none" xmlns="http://www.w3.org/2000/svg">
<path d="M22.6667 2C10.5164 2 0.666687 11.8497 0.666687 24C0.666687 36.1503 10.5164 46 22.6667 46C33.5677 46 42.6169 38.0716 44.3625 27.6667H44.2046C42.5765 33.9925 36.8341 38.6667 30 38.6667C21.8999 38.6667 15.3334 32.1002 15.3334 24C15.3334 15.8998 21.8999 9.33333 30 9.33333C36.8341 9.33333 42.5765 14.0075 44.2046 20.3333H44.3625C42.6169 9.92838 33.5677 2 22.6667 2Z" fill="#A4BCFD"/>
<path d="M0.666687 24C0.666687 11.8497 10.5164 2 22.6667 2C33.5677 2 42.6169 9.92838 44.3625 20.3333H29.538C27.9098 14.0075 22.1674 9.33333 15.3334 9.33333C7.23318 9.33333 0.666687 15.8998 0.666687 24Z" fill="#3538CD"/>
<path d="M0.666687 24C0.666687 36.1503 10.5164 46 22.6667 46C33.5677 46 42.6169 38.0716 44.3625 27.6667H29.538C27.9098 33.9925 22.1674 38.6667 15.3334 38.6667C7.23318 38.6667 0.666687 32.1002 0.666687 24Z" fill="#3538CD"/>
<path d="M76.1056 20.5071C75.4792 15.9829 71.999 13.3579 67.4848 13.3579C62.1652 13.3579 58.1581 17.2358 58.1581 23.8181C58.1581 30.3906 62.1155 34.2784 67.4848 34.2784C72.3272 34.2784 75.5388 31.1463 76.1056 27.2585L72.3868 27.2386C71.9195 29.625 69.9706 30.9673 67.5346 30.9673C64.2334 30.9673 61.8669 28.4914 61.8669 23.8181C61.8669 19.2244 64.2135 16.669 67.5445 16.669C70.0204 16.669 71.9593 18.071 72.3868 20.5071H76.1056Z" fill="#101828"/>
<path d="M83.7196 34.3082C86.1159 34.3082 87.5477 33.1846 88.2039 31.9019H88.3233V34H91.7835V23.7784C91.7835 19.7414 88.4923 18.5284 85.5789 18.5284C82.3673 18.5284 79.9014 19.9602 79.1059 22.7443L82.4667 23.2215C82.8247 22.1775 83.8389 21.2826 85.5988 21.2826C87.2693 21.2826 88.1841 22.1377 88.1841 23.6392V23.6988C88.1841 24.7329 87.1003 24.7826 84.4056 25.071C81.4426 25.3892 78.6088 26.2741 78.6088 29.7144C78.6088 32.7173 80.8062 34.3082 83.7196 34.3082ZM84.6542 31.6633C83.1528 31.6633 82.0789 30.9772 82.0789 29.6548C82.0789 28.2727 83.2821 27.696 84.8929 27.4673C85.8375 27.338 87.7267 27.0994 88.194 26.7215V28.5213C88.194 30.2215 86.8218 31.6633 84.6542 31.6633Z" fill="#101828"/>
<path d="M103.029 18.7272H100.016V15.0681H96.417V18.7272H94.2494V21.5113H96.417V30.0028C96.3971 32.8764 98.4852 34.2883 101.19 34.2088C102.214 34.1789 102.92 33.9801 103.308 33.8508L102.701 31.0369C102.502 31.0866 102.095 31.1761 101.647 31.1761C100.742 31.1761 100.016 30.8579 100.016 29.4062V21.5113H103.029V18.7272Z" fill="#101828"/>
<path d="M110.434 34.3082C112.831 34.3082 114.263 33.1846 114.919 31.9019H115.038V34H118.498V23.7784C118.498 19.7414 115.207 18.5284 112.294 18.5284C109.082 18.5284 106.616 19.9602 105.821 22.7443L109.182 23.2215C109.54 22.1775 110.554 21.2826 112.314 21.2826C113.984 21.2826 114.899 22.1377 114.899 23.6392V23.6988C114.899 24.7329 113.815 24.7826 111.12 25.071C108.157 25.3892 105.324 26.2741 105.324 29.7144C105.324 32.7173 107.521 34.3082 110.434 34.3082ZM111.369 31.6633C109.868 31.6633 108.794 30.9772 108.794 29.6548C108.794 28.2727 109.997 27.696 111.608 27.4673C112.552 27.338 114.442 27.0994 114.909 26.7215V28.5213C114.909 30.2215 113.537 31.6633 111.369 31.6633Z" fill="#101828"/>
<path d="M125.717 13.6363H122.118V34H125.717V13.6363Z" fill="#101828"/>
<path d="M136.08 34.2983C140.555 34.2983 143.399 31.1463 143.399 26.4233C143.399 21.6903 140.555 18.5284 136.08 18.5284C131.606 18.5284 128.762 21.6903 128.762 26.4233C128.762 31.1463 131.606 34.2983 136.08 34.2983ZM136.1 31.4147C133.624 31.4147 132.411 29.2073 132.411 26.4133C132.411 23.6193 133.624 21.3821 136.1 21.3821C138.536 21.3821 139.749 23.6193 139.749 26.4133C139.749 29.2073 138.536 31.4147 136.1 31.4147Z" fill="#101828"/>
<path d="M153.096 40.0454C157.222 40.0454 160.265 38.1562 160.265 34.2485V18.7272H156.715V21.2528H156.516C155.969 20.1491 154.826 18.5284 152.131 18.5284C148.601 18.5284 145.827 21.2926 145.827 26.3139C145.827 31.2954 148.601 33.7812 152.121 33.7812C154.736 33.7812 155.959 32.3792 156.516 31.2556H156.695V34.1491C156.695 36.3963 155.204 37.321 153.155 37.321C150.988 37.321 150.033 36.2968 149.596 35.4019L146.354 36.1875C147.01 38.3252 149.208 40.0454 153.096 40.0454ZM153.125 30.9573C150.749 30.9573 149.496 29.1079 149.496 26.294C149.496 23.5198 150.729 21.4815 153.125 21.4815C155.442 21.4815 156.715 23.4005 156.715 26.294C156.715 29.2073 155.422 30.9573 153.125 30.9573Z" fill="#101828"/>
</svg>
