<svg width="184" height="48" viewBox="0 0 184 48" fill="none" xmlns="http://www.w3.org/2000/svg">
<path d="M16.0475 33.4284C24.7263 33.4284 31.7618 26.3929 31.7618 17.7141C31.7618 16.7306 31.6714 15.7681 31.4985 14.8345C30.565 14.6617 29.6025 14.5713 28.6189 14.5713C19.9402 14.5713 12.9047 21.6068 12.9047 30.2856C12.9047 31.2692 12.995 32.2317 13.1679 33.1652C14.1014 33.3381 15.0639 33.4284 16.0475 33.4284Z" fill="#175CD3"/>
<path fill-rule="evenodd" clip-rule="evenodd" d="M13.1679 33.1653C5.86443 31.8127 0.333252 25.4095 0.333252 17.7143C0.333252 9.03553 7.36878 2 16.0475 2C23.7427 2 30.146 7.53118 31.4986 14.8347C30.565 14.6618 29.6026 14.5714 28.619 14.5714C19.9402 14.5714 12.9047 21.607 12.9047 30.2857C12.9047 31.2693 12.9951 32.2318 13.1679 33.1653Z" fill="#1570EF"/>
<path fill-rule="evenodd" clip-rule="evenodd" d="M16.0475 33.4284C24.7262 33.4284 31.7617 26.3928 31.7617 17.7141C31.7617 16.7305 31.6714 15.768 31.4985 14.8345C38.802 16.187 44.3332 22.5903 44.3332 30.2855C44.3332 38.9643 37.2976 45.9998 28.6189 45.9998C20.9237 45.9998 14.5204 40.4686 13.1678 33.1651C14.1014 33.338 15.0639 33.4284 16.0475 33.4284Z" fill="#2E90FA"/>
<path d="M74.5613 28.9042C74.0013 30.7148 73.0213 32.0682 71.6213 32.9642C70.2213 33.8415 68.5879 34.2802 66.7213 34.2802C64.8919 34.2802 63.3053 33.8975 61.9613 33.1322C60.6359 32.3668 59.6093 31.2748 58.8813 29.8562C58.1719 28.4375 57.8173 26.7388 57.8173 24.7602C57.8173 22.7815 58.1813 21.0828 58.9093 19.6642C59.6373 18.2455 60.6639 17.1535 61.9893 16.3882C63.3146 15.6228 64.8733 15.2402 66.6653 15.2402C68.5506 15.2402 70.1653 15.6415 71.5093 16.4442C72.8719 17.2282 73.8053 18.4228 74.3093 20.0282L70.8093 21.5122C70.4919 20.3922 70.0066 19.5988 69.3533 19.1322C68.6999 18.6468 67.8599 18.4042 66.8333 18.4042C65.3026 18.4042 64.0799 18.9548 63.1653 20.0562C62.2693 21.1388 61.8213 22.7068 61.8213 24.7602C61.8213 26.7948 62.2506 28.3628 63.1093 29.4642C63.9679 30.5655 65.2093 31.1162 66.8333 31.1162C67.8413 31.1162 68.7093 30.8455 69.4373 30.3042C70.1839 29.7628 70.7066 28.9415 71.0053 27.8402L74.5613 28.9042Z" fill="#101828"/>
<path d="M79.3945 17.9842C77.8079 17.9842 77.0145 17.3028 77.0145 15.9402C77.0145 14.5588 77.8079 13.8682 79.3945 13.8682C80.9812 13.8682 81.7745 14.5588 81.7745 15.9402C81.7745 17.3028 80.9812 17.9842 79.3945 17.9842ZM81.2985 20.0002V34.0002H77.4625V20.0002H81.2985Z" fill="#101828"/>
<path d="M85.3649 34.0002V20.0002H88.6969L88.9489 22.7442C89.3035 21.7922 89.8355 21.0548 90.5449 20.5322C91.2729 19.9908 92.1875 19.7202 93.2889 19.7202C93.9422 19.7202 94.4462 19.8228 94.8009 20.0282L94.3529 23.2482C94.1662 23.1922 93.9329 23.1455 93.6529 23.1082C93.3915 23.0522 93.0462 23.0242 92.6169 23.0242C92.0382 23.0242 91.4875 23.1642 90.9649 23.4442C90.4609 23.7055 90.0409 24.1162 89.7049 24.6762C89.3689 25.2175 89.2009 25.9082 89.2009 26.7482V34.0002H85.3649Z" fill="#101828"/>
<path d="M103.26 19.7202C105.127 19.7202 106.573 20.1215 107.6 20.9242C108.645 21.7268 109.336 22.6975 109.672 23.8362L106.088 25.1242C105.715 23.4255 104.791 22.5762 103.316 22.5762C102.252 22.5762 101.421 22.9495 100.824 23.6962C100.245 24.4428 99.9559 25.5535 99.9559 27.0282C99.9559 28.5215 100.255 29.6322 100.852 30.3602C101.468 31.0695 102.299 31.4242 103.344 31.4242C104.968 31.4242 105.939 30.5935 106.256 28.9322L109.728 30.0522C109.411 31.3028 108.701 32.3202 107.6 33.1042C106.517 33.8882 105.108 34.2802 103.372 34.2802C101.916 34.2802 100.637 33.9908 99.5359 33.4122C98.4533 32.8335 97.6133 32.0028 97.0159 30.9202C96.4186 29.8375 96.1199 28.5308 96.1199 27.0002C96.1199 25.4695 96.4186 24.1628 97.0159 23.0802C97.6319 21.9975 98.4719 21.1668 99.5359 20.5882C100.619 20.0095 101.86 19.7202 103.26 19.7202Z" fill="#101828"/>
<path d="M119.093 19.7202C120.493 19.7202 121.734 20.0095 122.817 20.5882C123.899 21.1668 124.739 21.9975 125.337 23.0802C125.953 24.1628 126.261 25.4695 126.261 27.0002C126.261 28.5308 125.953 29.8375 125.337 30.9202C124.739 32.0028 123.899 32.8335 122.817 33.4122C121.734 33.9908 120.493 34.2802 119.093 34.2802C117.674 34.2802 116.423 33.9908 115.341 33.4122C114.277 32.8335 113.437 32.0028 112.821 30.9202C112.223 29.8375 111.925 28.5308 111.925 27.0002C111.925 25.4695 112.223 24.1628 112.821 23.0802C113.437 21.9975 114.277 21.1668 115.341 20.5882C116.423 20.0095 117.674 19.7202 119.093 19.7202ZM119.093 22.5762C118.047 22.5762 117.226 22.9495 116.629 23.6962C116.05 24.4242 115.761 25.5255 115.761 27.0002C115.761 28.4748 116.05 29.5855 116.629 30.3322C117.226 31.0602 118.047 31.4242 119.093 31.4242C120.119 31.4242 120.922 31.0602 121.501 30.3322C122.098 29.5855 122.397 28.4748 122.397 27.0002C122.397 25.5255 122.098 24.4242 121.501 23.6962C120.922 22.9495 120.119 22.5762 119.093 22.5762Z" fill="#101828"/>
<path d="M135.854 19.7202C137.254 19.7202 138.496 20.0095 139.578 20.5882C140.661 21.1668 141.501 21.9975 142.098 23.0802C142.714 24.1628 143.022 25.4695 143.022 27.0002C143.022 28.5308 142.714 29.8375 142.098 30.9202C141.501 32.0028 140.661 32.8335 139.578 33.4122C138.496 33.9908 137.254 34.2802 135.854 34.2802C134.436 34.2802 133.185 33.9908 132.102 33.4122C131.038 32.8335 130.198 32.0028 129.582 30.9202C128.985 29.8375 128.686 28.5308 128.686 27.0002C128.686 25.4695 128.985 24.1628 129.582 23.0802C130.198 21.9975 131.038 21.1668 132.102 20.5882C133.185 20.0095 134.436 19.7202 135.854 19.7202ZM135.854 22.5762C134.809 22.5762 133.988 22.9495 133.39 23.6962C132.812 24.4242 132.522 25.5255 132.522 27.0002C132.522 28.4748 132.812 29.5855 133.39 30.3322C133.988 31.0602 134.809 31.4242 135.854 31.4242C136.881 31.4242 137.684 31.0602 138.262 30.3322C138.86 29.5855 139.158 28.4748 139.158 27.0002C139.158 25.5255 138.86 24.4242 138.262 23.6962C137.684 22.9495 136.881 22.5762 135.854 22.5762Z" fill="#101828"/>
<path d="M150.012 13.8682V29.6882C150.012 30.3415 150.124 30.7988 150.348 31.0602C150.572 31.3215 150.945 31.4522 151.468 31.4522C151.785 31.4522 152.047 31.4335 152.252 31.3962C152.457 31.3588 152.719 31.2842 153.036 31.1722L152.7 33.6922C152.383 33.8788 151.981 34.0188 151.496 34.1122C151.029 34.2242 150.563 34.2802 150.096 34.2802C148.733 34.2802 147.735 33.9535 147.1 33.3002C146.484 32.6282 146.176 31.5642 146.176 30.1082V13.8682H150.012Z" fill="#101828"/>
<path d="M161.669 34.2802C159.467 34.2802 157.703 33.6455 156.377 32.3762C155.052 31.0882 154.389 29.2962 154.389 27.0002C154.389 25.4695 154.688 24.1628 155.285 23.0802C155.883 21.9975 156.713 21.1668 157.777 20.5882C158.86 20.0095 160.092 19.7202 161.473 19.7202C162.892 19.7202 164.096 20.0095 165.085 20.5882C166.075 21.1482 166.831 21.9228 167.353 22.9122C167.876 23.8828 168.137 24.9935 168.137 26.2442C168.137 26.6175 168.128 26.9722 168.109 27.3082C168.091 27.6442 168.063 27.9428 168.025 28.2042H158.141C158.291 29.2868 158.664 30.0988 159.261 30.6402C159.877 31.1628 160.671 31.4242 161.641 31.4242C162.463 31.4242 163.125 31.2655 163.629 30.9482C164.133 30.6308 164.525 30.1922 164.805 29.6322L167.857 30.8082C167.409 31.9095 166.625 32.7682 165.505 33.3842C164.385 33.9815 163.107 34.2802 161.669 34.2802ZM161.445 22.5482C159.635 22.5482 158.543 23.5468 158.169 25.5442H164.469C164.357 24.5735 164.04 23.8362 163.517 23.3322C163.013 22.8095 162.323 22.5482 161.445 22.5482Z" fill="#101828"/>
<path d="M176.988 34.2802C175.57 34.2802 174.272 34.0282 173.096 33.5242C171.939 33.0202 170.996 32.3108 170.268 31.3962L172.48 29.1562C172.928 29.8282 173.526 30.3788 174.272 30.8082C175.019 31.2375 175.906 31.4522 176.932 31.4522C177.66 31.4522 178.239 31.3495 178.668 31.1442C179.116 30.9202 179.34 30.5748 179.34 30.1082C179.34 29.8095 179.238 29.5575 179.032 29.3522C178.827 29.1282 178.416 28.9508 177.8 28.8202L175.336 28.3162C173.712 27.9802 172.555 27.4762 171.864 26.8042C171.192 26.1135 170.856 25.2268 170.856 24.1442C170.856 23.3788 171.08 22.6602 171.528 21.9882C171.995 21.3162 172.686 20.7748 173.6 20.3642C174.515 19.9348 175.654 19.7202 177.016 19.7202C179.854 19.7202 181.888 20.5882 183.12 22.3242L180.824 24.5642C180.414 23.9108 179.872 23.4162 179.2 23.0802C178.547 22.7255 177.856 22.5482 177.128 22.5482C175.486 22.5482 174.664 23.0055 174.664 23.9202C174.664 24.2188 174.795 24.4802 175.056 24.7042C175.318 24.9095 175.794 25.0868 176.484 25.2362L179.34 25.8242C180.722 26.1042 181.711 26.5802 182.308 27.2522C182.906 27.9055 183.204 28.6988 183.204 29.6322C183.204 30.9762 182.663 32.0868 181.58 32.9642C180.516 33.8415 178.986 34.2802 176.988 34.2802Z" fill="#101828"/>
</svg>
