<svg width="25" height="25" viewBox="0 0 25 25" fill="none" xmlns="http://www.w3.org/2000/svg">
<path d="M14.1158 10.7596H15.1158C15.2448 10.7596 15.3685 10.7077 15.4588 10.6155C15.5491 10.5233 15.5985 10.3986 15.5958 10.2696V8.66961C15.5966 8.41938 15.4051 8.21046 15.1558 8.18961C15.1558 8.18961 14.4458 8.12961 13.5758 8.12961C11.4358 8.12961 10.2558 9.39961 10.2558 11.6996V13.4696H8.28578C8.15765 13.4669 8.03395 13.5165 7.94333 13.6072C7.85271 13.6978 7.80302 13.8215 7.80578 13.9496V15.4096C7.80302 15.5377 7.85271 15.6614 7.94333 15.7521C8.03395 15.8427 8.15765 15.8924 8.28578 15.8896H10.2258V21.5496H13.1458V15.8896H14.9058C15.1475 15.8872 15.3513 15.7088 15.3858 15.4696L15.5658 14.0096C15.5841 13.8714 15.5402 13.7322 15.4458 13.6296C15.3542 13.5272 15.2231 13.469 15.0858 13.4696H13.1458V11.7596C13.1455 11.2188 13.5752 10.7758 14.1158 10.7596Z" fill="white"/>
<path fill-rule="evenodd" clip-rule="evenodd" d="M2.05579 12.7596C2.05579 7.28647 6.49264 2.84961 11.9658 2.84961C14.5941 2.84961 17.1147 3.8937 18.9732 5.75218C20.8317 7.61067 21.8758 10.1313 21.8758 12.7596C21.8758 18.2328 17.4389 22.6696 11.9658 22.6696C6.49264 22.6696 2.05579 18.2328 2.05579 12.7596ZM20.3758 12.7596C20.3758 8.11489 16.6105 4.34961 11.9658 4.34961C7.32563 4.36061 3.56678 8.11946 3.55578 12.7596C3.55578 17.4043 7.32107 21.1696 11.9658 21.1696C16.6105 21.1696 20.3758 17.4043 20.3758 12.7596Z" fill="white"/>
</svg>
