<svg width="51" height="51" viewBox="0 0 51 51" fill="none" xmlns="http://www.w3.org/2000/svg">
<g clip-path="url(#clip0_10_279)">
<path d="M47.635 4.74707C47.4722 4.48665 47.2688 4.25065 47.0247 4.03906C46.7805 3.82747 46.4957 3.68913 46.1702 3.62402L38.4553 1.42676C38.1624 1.3291 37.8531 1.30469 37.5276 1.35352C37.2021 1.40234 36.9091 1.50814 36.6487 1.6709C36.3557 1.80111 36.1116 1.99642 35.9163 2.25684C35.7209 2.51725 35.5745 2.79395 35.4768 3.08691L30.1545 22.2275C30.0243 20.8278 29.8372 19.5013 29.593 18.248C29.3489 16.9948 29.064 15.8962 28.7385 14.9521C29.1292 14.7894 29.4954 14.5941 29.8372 14.3662C30.179 14.1383 30.4638 13.8779 30.6917 13.585C30.7893 13.4548 30.887 13.3164 30.9846 13.1699C31.0823 13.0234 31.1637 12.8688 31.2288 12.7061C31.2288 12.6735 31.2369 12.6572 31.2532 12.6572C31.2694 12.6572 31.2776 12.6572 31.2776 12.6572C31.2776 12.6572 31.2776 12.6409 31.2776 12.6084C31.5055 12.055 31.6112 11.3226 31.595 10.4111C31.5787 9.49968 31.2288 8.3929 30.5452 7.09082C30.0569 6.14681 29.7965 5.30859 29.7639 4.57617C29.7314 3.84375 29.7965 3.24968 29.9592 2.79395C30.0243 2.50098 30.0243 2.20801 29.9592 1.91504C29.8941 1.62207 29.7639 1.37793 29.5686 1.18262C29.3407 0.954754 29.0885 0.800129 28.8118 0.71875C28.5351 0.637371 28.2502 0.62923 27.9573 0.694336C26.0693 1.15007 24.5068 1.84993 23.2698 2.79395C22.0328 3.73796 21.1702 4.89355 20.6819 6.26074C20.6493 6.29329 20.6331 6.32585 20.6331 6.3584C20.6331 6.39095 20.6168 6.4235 20.5842 6.45605C20.3889 7.04199 20.2587 7.66862 20.1936 8.33594C20.1285 9.00325 20.1448 9.71126 20.2424 10.46C20.3401 11.3063 20.6249 12.0794 21.0969 12.7793C21.5689 13.4792 22.1793 14.0407 22.928 14.4639C22.6025 15.3102 22.2851 16.3112 21.9758 17.4668C21.6666 18.6224 21.4143 19.8512 21.219 21.1533L12.5764 8.31152C12.5764 8.31152 12.5683 8.31152 12.552 8.31152C12.5357 8.31152 12.5276 8.29525 12.5276 8.2627C12.495 8.2627 12.4788 8.25456 12.4788 8.23828C12.4788 8.222 12.4788 8.21387 12.4788 8.21387C12.4462 8.18132 12.4137 8.1569 12.3811 8.14062C12.3486 8.12435 12.316 8.11621 12.2834 8.11621L4.66626 4.84473C4.5035 4.74707 4.3326 4.70638 4.15356 4.72266C3.97453 4.73893 3.81991 4.7959 3.6897 4.89355C3.52694 5.02376 3.40487 5.16211 3.32349 5.30859C3.24211 5.45508 3.20142 5.62598 3.20142 5.82129L3.3479 14.0732C3.3479 14.1383 3.35604 14.1872 3.37231 14.2197C3.38859 14.2523 3.39673 14.2848 3.39673 14.3174C3.39673 14.3174 3.40487 14.3174 3.42114 14.3174C3.43742 14.3174 3.44556 14.3337 3.44556 14.3662C3.44556 14.3662 3.44556 14.3743 3.44556 14.3906C3.44556 14.4069 3.46183 14.4313 3.49438 14.4639L10.1838 24.376H7.44946C7.05884 24.376 6.71704 24.5225 6.42407 24.8154C6.1311 25.1084 5.98462 25.4665 5.98462 25.8896V29.7959C5.98462 30.2191 6.1311 30.569 6.42407 30.8457C6.71704 31.1224 7.05884 31.2607 7.44946 31.2607H9.45142L14.8225 49.0342C14.8876 49.262 14.9934 49.4736 15.1399 49.6689C15.2864 49.8643 15.4573 50.0433 15.6526 50.2061C15.8479 50.3363 16.0595 50.4421 16.2874 50.5234C16.5152 50.6048 16.7594 50.6455 17.0198 50.6455H33.9143C34.4351 50.6455 34.8909 50.499 35.2815 50.2061C35.6721 49.9131 35.9488 49.5225 36.1116 49.0342L41.4827 31.2607H43.4358C43.859 31.2607 44.217 31.1224 44.51 30.8457C44.803 30.569 44.9495 30.2191 44.9495 29.7959V25.8896C44.9495 25.4665 44.803 25.1084 44.51 24.8154C44.217 24.5225 43.859 24.376 43.4358 24.376H42.801L47.8303 6.60254C47.928 6.27702 47.9605 5.95964 47.928 5.65039C47.8954 5.34114 47.7978 5.04004 47.635 4.74707ZM28.2502 2.0127C28.3479 1.98014 28.4211 1.98014 28.47 2.0127C28.5188 2.04525 28.5595 2.0778 28.592 2.11035C28.592 2.11035 28.6083 2.1429 28.6409 2.20801C28.6734 2.27311 28.6734 2.33821 28.6409 2.40332C28.4781 2.98926 28.4049 3.73796 28.4211 4.64941C28.4374 5.56087 28.7548 6.58626 29.3733 7.72559C29.7314 8.40918 29.9836 9.06022 30.1301 9.67871C30.2766 10.2972 30.3173 10.8669 30.2522 11.3877C30.2522 11.3877 30.2441 11.3796 30.2278 11.3633C30.2115 11.347 30.2034 11.3389 30.2034 11.3389C30.0081 11.1761 29.829 10.9645 29.6663 10.7041C29.5035 10.4437 29.3407 10.1833 29.178 9.92285C28.9501 9.49968 28.6816 9.06836 28.3723 8.62891C28.0631 8.18945 27.6318 7.87207 27.0784 7.67676C26.7203 7.54655 26.3622 7.48958 26.0042 7.50586C25.6461 7.52214 25.3043 7.54655 24.9788 7.5791C24.7834 7.61165 24.6044 7.63607 24.4417 7.65234C24.2789 7.66862 24.1161 7.66048 23.9534 7.62793C23.5627 7.62793 23.1965 7.52214 22.8547 7.31055C22.5129 7.09896 22.2281 6.8304 22.0002 6.50488C22.5862 5.10514 23.5221 4.06348 24.8079 3.37988C26.0937 2.69629 27.2411 2.24056 28.2502 2.0127ZM21.5608 10.2646C21.4957 9.87402 21.4713 9.49154 21.4875 9.11719C21.5038 8.74284 21.5282 8.37663 21.5608 8.01855C21.8863 8.31152 22.2444 8.53939 22.635 8.70215C23.0256 8.86491 23.4325 8.94629 23.8557 8.94629C24.0836 8.97884 24.3033 8.98698 24.5149 8.9707C24.7265 8.95443 24.9299 8.93001 25.1252 8.89746C25.4182 8.86491 25.6868 8.8405 25.9309 8.82422C26.175 8.80794 26.4111 8.84863 26.6389 8.94629C26.9319 9.04395 27.1842 9.23926 27.3958 9.53223C27.6073 9.8252 27.8108 10.167 28.0061 10.5576C28.2014 10.8831 28.3967 11.2005 28.592 11.5098C28.7874 11.819 29.0315 12.0876 29.3245 12.3154C29.3896 12.3805 29.4547 12.4375 29.5198 12.4863C29.5849 12.5352 29.65 12.5921 29.7151 12.6572C29.7151 12.6572 29.7069 12.6654 29.6907 12.6816C29.6744 12.6979 29.6663 12.7223 29.6663 12.7549C29.178 13.3408 28.4781 13.7396 27.5667 13.9512C26.6552 14.1628 25.7275 14.1221 24.7834 13.8291C24.3603 13.6989 23.7499 13.3815 22.9524 12.877C22.1549 12.3724 21.691 11.5016 21.5608 10.2646ZM24.4417 15.0986C24.7672 15.1963 25.0927 15.2695 25.4182 15.3184C25.7437 15.3672 26.0693 15.3916 26.3948 15.3916C26.5575 15.3916 26.7366 15.3835 26.9319 15.3672C27.1272 15.3509 27.3062 15.3265 27.469 15.2939C27.8596 16.4007 28.1851 17.7516 28.4456 19.3467C28.706 20.9417 28.885 22.6344 28.9827 24.4248H22.0979C22.2932 22.5368 22.5699 20.7708 22.928 19.127C23.2861 17.4831 23.693 16.1077 24.1487 15.001C24.2138 15.0335 24.2626 15.0579 24.2952 15.0742C24.3277 15.0905 24.3765 15.0986 24.4417 15.0986ZM10.8186 9.77637L9.64673 9.8252H9.35376C9.32121 9.8252 9.28866 9.83333 9.2561 9.84961C9.22355 9.86589 9.191 9.87402 9.15845 9.87402C9.06079 9.90657 8.97941 9.9554 8.91431 10.0205C8.8492 10.0856 8.80037 10.1507 8.76782 10.2158L8.13306 11.583L6.66821 11.6318C6.538 11.6318 6.42407 11.6644 6.32642 11.7295C6.22876 11.7946 6.14738 11.8923 6.08228 12.0225L5.49634 13.3896H4.66626L4.61743 9.28809C4.87785 9.22298 5.13827 9.13346 5.39868 9.01953C5.6591 8.9056 5.90324 8.76725 6.1311 8.60449C6.35897 8.44173 6.57869 8.2627 6.79028 8.06738C7.00187 7.87207 7.18905 7.66048 7.35181 7.43262L11.1116 9.04395L10.8186 9.77637ZM6.08228 6.89551C5.88696 7.12337 5.6591 7.31868 5.39868 7.48145C5.13827 7.64421 4.86157 7.77441 4.5686 7.87207V6.21191L6.08228 6.89551ZM5.2522 14.708H5.93579C6.066 14.6755 6.18807 14.6266 6.302 14.5615C6.41593 14.4964 6.48918 14.3988 6.52173 14.2686L7.10767 12.9502L8.32837 12.9014L14.1389 21.5439C14.204 21.6416 14.2854 21.7148 14.3831 21.7637C14.4807 21.8125 14.5784 21.8369 14.676 21.8369C14.7411 21.8369 14.8062 21.8288 14.8713 21.8125C14.9364 21.7962 15.0015 21.7718 15.0667 21.7393C15.1969 21.6416 15.2864 21.5033 15.3352 21.3242C15.384 21.1452 15.3596 20.9743 15.262 20.8115L9.40259 12.1201L9.79321 11.1436H10.1838L11.2581 11.0947C11.3883 11.0947 11.4941 11.0703 11.5754 11.0215C11.6568 10.9727 11.7301 10.8994 11.7952 10.8018C11.7952 10.8018 11.8033 10.7936 11.8196 10.7773C11.8359 10.7611 11.844 10.7367 11.844 10.7041L12.137 10.0693L20.7795 22.96C20.8121 22.9925 20.8365 23.0169 20.8528 23.0332C20.8691 23.0495 20.8935 23.0576 20.926 23.0576C20.8935 23.2855 20.8609 23.5133 20.8284 23.7412C20.7958 23.9691 20.7633 24.1969 20.7307 24.4248H11.7952L5.2522 14.708ZM34.842 48.6436C34.7769 48.8714 34.663 49.0423 34.5002 49.1562C34.3375 49.2702 34.1422 49.3271 33.9143 49.3271H17.0198C16.7919 49.3271 16.5966 49.2702 16.4338 49.1562C16.2711 49.0423 16.1571 48.8714 16.092 48.6436L10.8674 31.3096H40.0667L34.842 48.6436ZM43.6311 25.8896V29.7959C43.6311 29.861 43.6148 29.9098 43.5823 29.9424C43.5497 29.9749 43.5009 29.9912 43.4358 29.9912H7.44946C7.41691 29.9912 7.38436 29.9749 7.35181 29.9424C7.31925 29.9098 7.30298 29.861 7.30298 29.7959V25.8896C7.30298 25.8571 7.31925 25.8245 7.35181 25.792C7.38436 25.7594 7.41691 25.7432 7.44946 25.7432H43.4358C43.5009 25.7432 43.5497 25.7594 43.5823 25.792C43.6148 25.8245 43.6311 25.8571 43.6311 25.8896ZM30.9358 24.4248L36.7952 3.47754C36.8277 3.31478 36.8847 3.18457 36.9661 3.08691C37.0474 2.98926 37.1532 2.8916 37.2834 2.79395C37.4137 2.72884 37.552 2.68815 37.6985 2.67188C37.845 2.6556 37.9833 2.68001 38.1135 2.74512L45.8284 4.89355C45.9586 4.92611 46.0806 4.99121 46.1946 5.08887C46.3085 5.18652 46.398 5.30046 46.4631 5.43066C46.5282 5.52832 46.5689 5.65039 46.5852 5.79688C46.6015 5.94336 46.5933 6.08171 46.5608 6.21191L46.1702 7.67676L43.2405 6.84668C43.1754 6.81413 43.1265 6.79785 43.094 6.79785C43.0614 6.79785 43.0126 6.79785 42.9475 6.79785C42.915 6.79785 42.8743 6.80599 42.8254 6.82227C42.7766 6.83854 42.7359 6.86296 42.7034 6.89551C42.6708 6.92806 42.6383 6.95247 42.6057 6.96875C42.5732 6.98503 42.5406 7.00944 42.5081 7.04199C42.4755 7.07454 42.4511 7.11523 42.4348 7.16406C42.4185 7.21289 42.4104 7.25358 42.4104 7.28613C42.3453 7.48145 42.3616 7.65234 42.4592 7.79883C42.5569 7.94531 42.6871 8.05111 42.8499 8.11621L45.7795 8.94629L45.1936 11.1924L43.8264 10.8018C43.7939 10.8018 43.7532 10.7936 43.7043 10.7773C43.6555 10.7611 43.6148 10.7692 43.5823 10.8018C43.5497 10.8018 43.509 10.8018 43.4602 10.8018C43.4114 10.8018 43.3707 10.818 43.3381 10.8506C43.3056 10.8831 43.273 10.9157 43.2405 10.9482C43.2079 10.9808 43.1754 11.0133 43.1428 11.0459C43.1103 11.0784 43.0859 11.111 43.0696 11.1436C43.0533 11.1761 43.0452 11.2087 43.0452 11.2412C42.9801 11.4365 42.9963 11.6156 43.094 11.7783C43.1917 11.9411 43.3219 12.0387 43.4846 12.0713L44.803 12.4619L44.1682 14.708L41.2385 13.8779C41.206 13.8454 41.1653 13.8291 41.1165 13.8291C41.0676 13.8291 41.0269 13.8291 40.9944 13.8291C40.9293 13.8291 40.8805 13.8372 40.8479 13.8535C40.8153 13.8698 40.7828 13.8942 40.7502 13.9268C40.7177 13.9593 40.677 13.9837 40.6282 14C40.5793 14.0163 40.5549 14.0407 40.5549 14.0732C40.5224 14.1058 40.498 14.1465 40.4817 14.1953C40.4654 14.2441 40.441 14.2848 40.4084 14.3174C40.3759 14.5127 40.4003 14.6836 40.4817 14.8301C40.5631 14.9766 40.7014 15.0824 40.8967 15.1475L43.8264 15.9775L43.1917 18.2236L41.8733 17.833C41.8407 17.833 41.8 17.8249 41.7512 17.8086C41.7024 17.7923 41.6454 17.7842 41.5803 17.7842C41.5478 17.8167 41.5152 17.833 41.4827 17.833C41.4501 17.833 41.4013 17.8493 41.3362 17.8818C41.3036 17.9144 41.2711 17.9469 41.2385 17.9795C41.206 18.012 41.1734 18.0446 41.1409 18.0771C41.1409 18.1097 41.1246 18.1423 41.092 18.1748C41.0595 18.2074 41.0432 18.2399 41.0432 18.2725C40.9781 18.4678 40.9944 18.6468 41.092 18.8096C41.1897 18.9723 41.3199 19.07 41.4827 19.1025L42.8499 19.4932L42.2151 21.7393L42.1663 21.6904L39.2854 20.8604C39.2203 20.8604 39.1715 20.8604 39.1389 20.8604C39.1064 20.8604 39.0575 20.8604 38.9924 20.8604C38.9599 20.8604 38.9192 20.8685 38.8704 20.8848C38.8215 20.901 38.7808 20.9255 38.7483 20.958C38.7157 20.958 38.6832 20.9743 38.6506 21.0068C38.6181 21.0394 38.5855 21.0719 38.553 21.1045C38.5204 21.137 38.496 21.1777 38.4797 21.2266C38.4635 21.2754 38.4553 21.3161 38.4553 21.3486C38.3902 21.5114 38.4065 21.6742 38.5042 21.8369C38.6018 21.9997 38.732 22.1136 38.8948 22.1787L41.7756 22.96C41.8082 22.9925 41.8245 23.0088 41.8245 23.0088L41.4338 24.376L30.9358 24.4248Z" fill="white"/>
</g>
<defs>
<clipPath id="clip0_10_279">
<rect width="50.2" height="50" fill="white" transform="matrix(1 0 0 -1 0.611084 50.6455)"/>
</clipPath>
</defs>
</svg>
