<svg width="23" height="23" viewBox="0 0 23 23" fill="none" xmlns="http://www.w3.org/2000/svg">
<circle cx="11.1539" cy="11.6013" r="10.5715" fill="#C8C4FF" fill-opacity="0.41" stroke="#7065F0"/>
<path d="M12.8993 15.9649C12.6302 16.1866 12.3903 16.3806 12.1585 16.5222C11.9272 16.6637 11.741 16.7279 11.5824 16.7279C11.4238 16.7279 11.2376 16.6632 11.0063 16.5222L12.8993 15.9649ZM12.8993 15.9649C13.0432 15.8458 13.1905 15.7276 13.3383 15.609M12.8993 15.9649L13.3383 15.609M13.3383 15.609L13.3521 15.5979M13.3383 15.609L13.3521 15.5979M13.3521 15.5979L13.3608 15.5909M13.3521 15.5979L13.3608 15.5909M13.3608 15.5909C13.9996 15.076 14.6541 14.5484 15.1955 13.9123L13.3608 15.5909Z" fill="#7065F0" stroke="#7065F0"/>
</svg>
