<svg width="12" height="11" viewBox="0 0 12 11" fill="none" xmlns="http://www.w3.org/2000/svg">
<path d="M6.89933 8.96493C6.63021 9.18665 6.39026 9.38059 6.15849 9.52217C5.92724 9.66374 5.741 9.72786 5.5824 9.72786C5.42379 9.72786 5.23756 9.66321 5.0063 9.52217L6.89933 8.96493ZM6.89933 8.96493C7.04321 8.84577 7.19045 8.72762 7.33827 8.609M6.89933 8.96493L7.33827 8.609M7.33827 8.609L7.35212 8.59789M7.33827 8.609L7.35212 8.59789M7.35212 8.59789L7.36077 8.59092M7.35212 8.59789L7.36077 8.59092M7.36077 8.59092C7.99961 8.07596 8.6541 7.5484 9.19551 6.91229L7.36077 8.59092Z" fill="#7065F0" stroke="#7065F0"/>
</svg>
