<svg width="28" height="28" viewBox="0 0 28 28" fill="none" xmlns="http://www.w3.org/2000/svg">
<circle cx="13.9688" cy="14.416" r="13.5" fill="#7065F0"/>
<path d="M8.34375 20.666H19.5938" stroke="white" stroke-width="1.5" stroke-linecap="round" stroke-linejoin="round"/>
<path d="M9.96873 12.1536H8.96875C8.625 12.1536 8.34375 12.4348 8.34375 12.7786V18.1661C8.34375 18.5098 8.625 18.7911 8.96875 18.7911H9.96873C10.3125 18.7911 10.5937 18.5098 10.5937 18.1661V12.7786C10.5937 12.4348 10.3125 12.1536 9.96873 12.1536Z" stroke="white" stroke-width="1.5" stroke-linecap="round" stroke-linejoin="round"/>
<path d="M14.4687 10.1597H13.4688C13.125 10.1597 12.8438 10.4409 12.8438 10.7847V18.1659C12.8438 18.5097 13.125 18.7909 13.4688 18.7909H14.4687C14.8125 18.7909 15.0937 18.5097 15.0937 18.1659V10.7847C15.0937 10.4409 14.8125 10.1597 14.4687 10.1597Z" stroke="white" stroke-width="1.5" stroke-linecap="round" stroke-linejoin="round"/>
<path d="M18.9687 8.16602H17.9688C17.625 8.16602 17.3438 8.44727 17.3438 8.79102V18.166C17.3438 18.5098 17.625 18.791 17.9688 18.791H18.9687C19.3125 18.791 19.5937 18.5098 19.5937 18.166V8.79102C19.5937 8.44727 19.3125 8.16602 18.9687 8.16602Z" stroke="white" stroke-width="1.5" stroke-linecap="round" stroke-linejoin="round"/>
</svg>
