<svg width="20" height="20" viewBox="0 0 20 20" fill="none" xmlns="http://www.w3.org/2000/svg">
<path fill-rule="evenodd" clip-rule="evenodd" d="M6.20581 0H13.9058C17.2195 0 19.9058 2.68629 19.9058 6V13.7C19.9058 17.0137 17.2195 19.7 13.9058 19.7H6.20581C2.8921 19.7 0.205811 17.0137 0.205811 13.7V6C0.205811 2.68629 2.8921 0 6.20581 0ZM18.4058 6C18.4003 3.517 16.3888 1.5055 13.9058 1.5H6.20581C3.72281 1.5055 1.71131 3.517 1.70581 6V13.7C1.71131 16.183 3.72281 18.1945 6.20581 18.2H13.9058C16.3888 18.1945 18.4003 16.183 18.4058 13.7V6Z" fill="white"/>
<path fill-rule="evenodd" clip-rule="evenodd" d="M5.75581 9.85C5.76131 7.47746 7.68327 5.5555 10.0558 5.55C12.4284 5.5555 14.3503 7.47746 14.3558 9.85C14.3558 12.2248 12.4306 14.15 10.0558 14.15C7.68099 14.15 5.75581 12.2248 5.75581 9.85ZM12.8558 9.85C12.8558 8.3036 11.6022 7.05 10.0558 7.05C8.51169 7.05549 7.2613 8.30588 7.25581 9.85C7.25581 11.3964 8.50941 12.65 10.0558 12.65C11.6022 12.65 12.8558 11.3964 12.8558 9.85Z" fill="white"/>
<path d="M13.7158 4.505C13.7158 3.90577 14.2016 3.42 14.8008 3.42C15.4 3.42 15.8858 3.90577 15.8858 4.505C15.8858 5.10423 15.4 5.59 14.8008 5.59C14.2016 5.59 13.7158 5.10423 13.7158 4.505Z" fill="white"/>
</svg>
