<svg width="19" height="19" viewBox="0 0 19 19" fill="none" xmlns="http://www.w3.org/2000/svg">
<path fill-rule="evenodd" clip-rule="evenodd" d="M15.0303 14.8491C15.0318 15.0471 14.9681 15.1041 14.7753 15.0996C14.2278 15.0891 13.6803 15.0808 13.1336 15.1026C12.8591 15.1138 12.7765 15.0426 12.7803 14.7569C12.7968 13.5261 12.7863 12.2946 12.7885 11.0631C12.7885 10.7256 12.7661 10.3911 12.6423 10.0731C12.4323 9.53606 12.07 9.17238 11.4693 9.11981C10.8303 9.06356 10.3661 9.35456 10.0526 9.89388C9.84709 10.2471 9.79984 10.6416 9.80059 11.0451C9.80359 12.2893 9.79384 13.5328 9.80802 14.7763C9.81184 15.0441 9.73002 15.1108 9.47352 15.1018C8.92677 15.0831 8.37927 15.0876 7.83184 15.1004C7.62184 15.1056 7.55802 15.0426 7.55802 14.8296C7.56484 12.2676 7.56402 9.70556 7.55959 7.14363C7.55959 6.95988 7.59709 6.87731 7.80402 6.88188C8.38827 6.89456 8.97327 6.89456 9.55752 6.88188C9.76002 6.87813 9.81327 6.95156 9.80502 7.14063C9.79227 7.44738 9.80202 7.75481 9.80202 8.14181C10.6683 7.07081 11.7115 6.71913 12.9506 6.96888C14.1506 7.21106 14.9763 8.29113 15.0108 9.73788C15.0513 11.4403 15.0213 13.1451 15.0303 14.8491ZM4.9466 5.92863C4.21977 5.92706 3.65127 5.35106 3.65285 4.61913C3.65427 3.89606 4.2401 3.30663 4.95402 3.30806C5.66885 3.31031 6.24935 3.90206 6.2471 4.62581C6.24552 5.35938 5.6756 5.93006 4.9466 5.92863ZM5.7506 15.1026C5.20452 15.0808 4.65635 15.0891 4.1096 15.0996C3.91377 15.1034 3.82535 15.0673 3.82602 14.8393C3.8336 12.2788 3.83277 9.71913 3.82677 7.15856C3.82602 6.95313 3.8756 6.87581 4.09452 6.88188C4.65335 6.89606 5.21352 6.89988 5.7716 6.88031C6.02877 6.87131 6.07602 6.96656 6.0746 7.19906C6.06485 8.46656 6.07002 9.73406 6.07002 11.0023C6.07002 12.2571 6.0626 13.5126 6.07535 14.7681C6.07835 15.0231 6.01977 15.1131 5.7506 15.1026ZM17.974 3.90963C17.923 3.50231 17.9163 3.08306 17.6913 2.71863C16.9631 1.53738 15.958 0.864559 14.5173 0.872134C10.8723 0.890884 7.22735 0.872134 3.58227 0.884884C3.03485 0.886309 2.4716 0.904309 1.97435 1.19831C0.760771 1.91681 0.0482709 2.92106 0.0558459 4.39331C0.0730209 8.05038 0.0558459 11.7073 0.0677709 15.3651C0.0700209 15.8803 0.0775959 16.4196 0.347521 16.8838C0.985021 17.9819 1.8251 18.7971 3.20502 18.7918C3.24477 18.7918 3.2756 18.8106 3.3086 18.8278H14.8023C14.8661 18.7708 14.9441 18.7993 15.0161 18.7903C15.4293 18.7386 15.8561 18.7363 16.2228 18.4993C17.248 17.8363 18.0018 17.0016 17.9786 15.6823C17.9786 15.6591 17.995 15.6381 18.0123 15.6186V4.12488C17.9613 4.05963 17.983 3.98231 17.974 3.90963Z" fill="white"/>
</svg>
