<svg width="16" height="14" viewBox="0 0 16 14" fill="none" xmlns="http://www.w3.org/2000/svg">
<path d="M14.8182 1.82318V11.0258C14.8182 11.3309 14.6984 11.6235 14.4853 11.8393C14.2722 12.055 13.9832 12.1762 13.6818 12.1762H2.31816C2.01678 12.1762 1.72775 12.055 1.51464 11.8393C1.30153 11.6235 1.1818 11.3309 1.1818 11.0258V1.82318H14.8182ZM14.8182 0.672852H1.1818C0.88042 0.672852 0.591381 0.794047 0.378271 1.00978C0.165162 1.22551 0.0454378 1.5181 0.0454378 1.82318V11.0258C0.0454378 11.636 0.284885 12.2212 0.711105 12.6527C1.13732 13.0841 1.7154 13.3265 2.31816 13.3265H13.6818C14.2846 13.3265 14.8626 13.0841 15.2889 12.6527C15.7151 12.2212 15.9545 11.636 15.9545 11.0258V1.82318C15.9545 1.5181 15.8348 1.22551 15.6217 1.00978C15.4086 0.794047 15.1195 0.672852 14.8182 0.672852Z" fill="white"/>
<path d="M1.03975 1.82324L5.43407 6.90771C5.75404 7.278 6.14853 7.57475 6.59107 7.77806C7.03362 7.98138 7.51399 8.08657 7.99998 8.08657C8.48597 8.08657 8.96634 7.98138 9.40888 7.77806C9.85143 7.57475 10.2459 7.278 10.5659 6.90771L14.9602 1.82324H1.03975ZM13.45 1.82324L9.71134 6.14964C9.49802 6.39656 9.23501 6.59445 8.93995 6.73004C8.64488 6.86562 8.32459 6.93576 8.00055 6.93576C7.67651 6.93576 7.35621 6.86562 7.06115 6.73004C6.76608 6.59445 6.50307 6.39656 6.28975 6.14964L2.54998 1.82324H13.45Z" fill="white"/>
</svg>
