<svg width="25" height="25" viewBox="0 0 25 25" fill="none" xmlns="http://www.w3.org/2000/svg">
<path d="M10.5388 3.23611L3.60877 8.78611C2.82877 9.40611 2.32877 10.7161 2.49877 11.6961L3.82877 19.6561C4.06877 21.0761 5.42877 22.2261 6.86877 22.2261H18.0688C19.4988 22.2261 20.8688 21.0661 21.1088 19.6561L22.4388 11.6961C22.5988 10.7161 22.0988 9.40611 21.3288 8.78611L14.3988 3.24611C13.3288 2.38611 11.5988 2.38611 10.5388 3.23611Z" stroke="white" stroke-width="1.5" stroke-linecap="round" stroke-linejoin="round"/>
<path d="M9.22875 16.916L8.45875 16.146L15.6143 8.99602L16.3843 9.77152L9.22875 16.916ZM14.7343 17.081C14.3713 17.081 14.0394 16.993 13.7388 16.817C13.4418 16.6373 13.2034 16.399 13.0237 16.102C12.8441 15.8013 12.7543 15.4677 12.7543 15.101C12.7543 14.7417 12.8459 14.4117 13.0293 14.111C13.2126 13.8103 13.4546 13.5702 13.7553 13.3905C14.0559 13.2108 14.3823 13.121 14.7343 13.121C15.0973 13.121 15.4291 13.2108 15.7298 13.3905C16.0304 13.5665 16.2688 13.8048 16.4448 14.1055C16.6244 14.4025 16.7143 14.7343 16.7143 15.101C16.7143 15.4677 16.6244 15.8013 16.4448 16.102C16.2688 16.399 16.0304 16.6373 15.7298 16.817C15.4291 16.993 15.0973 17.081 14.7343 17.081ZM14.7343 16.0855C14.9139 16.0855 15.0771 16.0415 15.2238 15.9535C15.3741 15.8618 15.4933 15.7408 15.5813 15.5905C15.6729 15.4402 15.7188 15.277 15.7188 15.101C15.7188 14.925 15.6729 14.7618 15.5813 14.6115C15.4933 14.4612 15.3741 14.342 15.2238 14.254C15.0771 14.1623 14.9139 14.1165 14.7343 14.1165C14.5583 14.1165 14.3951 14.1623 14.2448 14.254C14.0981 14.342 13.9789 14.4612 13.8873 14.6115C13.7993 14.7618 13.7553 14.925 13.7553 15.101C13.7553 15.277 13.7993 15.4402 13.8873 15.5905C13.9789 15.7408 14.0981 15.8618 14.2448 15.9535C14.3951 16.0415 14.5583 16.0855 14.7343 16.0855ZM10.1088 12.791C9.74575 12.791 9.41392 12.703 9.11325 12.527C8.81258 12.3473 8.57242 12.109 8.39275 11.812C8.21675 11.5113 8.12875 11.1777 8.12875 10.811C8.12875 10.4517 8.22042 10.1217 8.40375 9.82102C8.58708 9.52035 8.82908 9.28018 9.12975 9.10051C9.43042 8.92085 9.75675 8.83102 10.1088 8.83102C10.4718 8.83102 10.8018 8.92085 11.0988 9.10051C11.3994 9.27652 11.6396 9.51485 11.8193 9.81552C11.9989 10.1125 12.0888 10.4443 12.0888 10.811C12.0888 11.1777 11.9989 11.5113 11.8193 11.812C11.6396 12.109 11.3994 12.3473 11.0988 12.527C10.8018 12.703 10.4718 12.791 10.1088 12.791ZM10.1088 11.7955C10.2848 11.7955 10.4479 11.7515 10.5983 11.6635C10.7486 11.5718 10.8678 11.4508 10.9558 11.3005C11.0474 11.1502 11.0933 10.987 11.0933 10.811C11.0933 10.635 11.0474 10.4718 10.9558 10.3215C10.8678 10.1712 10.7486 10.052 10.5983 9.96402C10.4479 9.87235 10.2848 9.82652 10.1088 9.82652C9.93275 9.82652 9.76958 9.87235 9.61925 9.96402C9.47258 10.052 9.35342 10.1712 9.26175 10.3215C9.17008 10.4718 9.12425 10.635 9.12425 10.811C9.12425 10.987 9.17008 11.1502 9.26175 11.3005C9.35342 11.4508 9.47258 11.5718 9.61925 11.6635C9.76592 11.7515 9.92908 11.7955 10.1088 11.7955Z" fill="#7065F0"/>
</svg>
