<svg width="23" height="22" viewBox="0 0 23 22" fill="none" xmlns="http://www.w3.org/2000/svg">
<path d="M8.54431 14.5842V7.41616C8.54446 7.32648 8.56873 7.23848 8.61457 7.1614C8.66042 7.08432 8.72615 7.02099 8.80488 6.97804C8.88362 6.9351 8.97245 6.91412 9.06208 6.91731C9.15171 6.9205 9.23883 6.94773 9.31431 6.99616L14.8903 10.5792C14.9609 10.6244 15.019 10.6867 15.0592 10.7602C15.0995 10.8338 15.1206 10.9163 15.1206 11.0002C15.1206 11.084 15.0995 11.1665 15.0592 11.2401C15.019 11.3137 14.9609 11.3759 14.8903 11.4212L9.31431 15.0052C9.23883 15.0536 9.15171 15.0808 9.06208 15.084C8.97245 15.0872 8.88362 15.0662 8.80488 15.0233C8.72615 14.9803 8.66042 14.917 8.61457 14.8399C8.56873 14.7628 8.54446 14.6748 8.54431 14.5852V14.5842Z" fill="white"/>
<path d="M0.0443115 11C0.0443115 4.925 4.96931 0 11.0443 0C17.1193 0 22.0443 4.925 22.0443 11C22.0443 17.075 17.1193 22 11.0443 22C4.96931 22 0.0443115 17.075 0.0443115 11ZM11.0443 1.5C8.52475 1.5 6.10839 2.50089 4.3268 4.28249C2.5452 6.06408 1.54431 8.48044 1.54431 11C1.54431 13.5196 2.5452 15.9359 4.3268 17.7175C6.10839 19.4991 8.52475 20.5 11.0443 20.5C13.5639 20.5 15.9802 19.4991 17.7618 17.7175C19.5434 15.9359 20.5443 13.5196 20.5443 11C20.5443 8.48044 19.5434 6.06408 17.7618 4.28249C15.9802 2.50089 13.5639 1.5 11.0443 1.5Z" fill="white"/>
</svg>
