<svg width="32" height="32" viewBox="0 0 32 32" fill="none" xmlns="http://www.w3.org/2000/svg">
<rect x="1.26611" y="1.14746" width="29.35" height="29.35" rx="7" stroke="#7065F0" stroke-width="2"/>
<mask id="path-2-inside-1_14_283" fill="white">
<path d="M13.3841 21.3746C12.8643 21.3746 12.3776 21.2581 11.9486 21.0251C10.9338 20.4737 10.3728 19.3632 10.3728 17.9033V13.7486C10.3728 12.2886 10.9338 11.1781 11.9486 10.6267C12.9633 10.0753 14.2586 10.1763 15.6116 10.9063L19.4313 12.9797C20.7761 13.7097 21.5186 14.7193 21.5186 15.822C21.5186 16.9248 20.7761 17.9343 19.4313 18.6643L15.6116 20.7378C14.8361 21.1649 14.0771 21.3746 13.3841 21.3746ZM13.3841 11.4421C13.0788 11.4421 12.7983 11.5042 12.5591 11.6363C11.9486 11.9702 11.6103 12.7157 11.6103 13.7486V17.8955C11.6103 18.9206 11.9486 19.6739 12.5673 20.0078C13.1861 20.3417 14.0441 20.2408 14.9928 19.7282L18.8126 17.6548C19.7613 17.1422 20.2811 16.4899 20.2811 15.822C20.2811 15.1542 19.7613 14.5018 18.8126 13.9893L14.9928 11.9158C14.4071 11.5974 13.8626 11.4421 13.3841 11.4421Z"/>
</mask>
<path d="M13.3841 21.3746C12.8643 21.3746 12.3776 21.2581 11.9486 21.0251C10.9338 20.4737 10.3728 19.3632 10.3728 17.9033V13.7486C10.3728 12.2886 10.9338 11.1781 11.9486 10.6267C12.9633 10.0753 14.2586 10.1763 15.6116 10.9063L19.4313 12.9797C20.7761 13.7097 21.5186 14.7193 21.5186 15.822C21.5186 16.9248 20.7761 17.9343 19.4313 18.6643L15.6116 20.7378C14.8361 21.1649 14.0771 21.3746 13.3841 21.3746ZM13.3841 11.4421C13.0788 11.4421 12.7983 11.5042 12.5591 11.6363C11.9486 11.9702 11.6103 12.7157 11.6103 13.7486V17.8955C11.6103 18.9206 11.9486 19.6739 12.5673 20.0078C13.1861 20.3417 14.0441 20.2408 14.9928 19.7282L18.8126 17.6548C19.7613 17.1422 20.2811 16.4899 20.2811 15.822C20.2811 15.1542 19.7613 14.5018 18.8126 13.9893L14.9928 11.9158C14.4071 11.5974 13.8626 11.4421 13.3841 11.4421Z" fill="#1D185E"/>
<path d="M11.9486 21.0251L10.9937 22.7825L10.9941 22.7827L11.9486 21.0251ZM15.6116 10.9063L16.5657 9.14854L16.5612 9.14611L15.6116 10.9063ZM19.4313 12.9797L20.3855 11.222L20.3854 11.222L19.4313 12.9797ZM19.4313 18.6643L20.3854 20.422L20.3855 20.422L19.4313 18.6643ZM15.6116 20.7378L14.6574 18.98L14.6467 18.9859L15.6116 20.7378ZM12.5591 11.6363L13.5188 13.3909L13.5253 13.3874L12.5591 11.6363ZM14.9928 19.7282L15.9434 21.4879L15.9469 21.486L14.9928 19.7282ZM18.8126 17.6548L17.8619 15.8951L17.8584 15.897L18.8126 17.6548ZM18.8126 13.9893L17.8584 15.747L17.8619 15.7489L18.8126 13.9893ZM14.9928 11.9158L14.0376 13.673L14.0387 13.6736L14.9928 11.9158ZM13.3841 19.3746C13.1669 19.3746 13.0132 19.3274 12.903 19.2676L10.9941 22.7827C11.7419 23.1888 12.5617 23.3746 13.3841 23.3746V19.3746ZM12.9034 19.2678C12.7098 19.1626 12.3728 18.8565 12.3728 17.9033H8.3728C8.3728 19.8699 9.15777 21.7849 10.9937 22.7825L12.9034 19.2678ZM12.3728 17.9033V13.7486H8.3728V17.9033H12.3728ZM12.3728 13.7486C12.3728 12.7953 12.7098 12.4892 12.9034 12.384L10.9937 8.86936C9.15777 9.86692 8.3728 11.7819 8.3728 13.7486H12.3728ZM12.9034 12.384C13.1317 12.26 13.6803 12.1368 14.6619 12.6664L16.5612 9.14611C14.8368 8.21575 12.7949 7.89067 10.9937 8.86936L12.9034 12.384ZM14.6574 12.664L18.4772 14.7375L20.3854 11.222L16.5657 9.14854L14.6574 12.664ZM18.4771 14.7375C19.4626 15.2724 19.5186 15.7283 19.5186 15.822H23.5186C23.5186 13.7103 22.0895 12.147 20.3855 11.222L18.4771 14.7375ZM19.5186 15.822C19.5186 15.9158 19.4626 16.3716 18.4771 16.9066L20.3855 20.422C22.0895 19.497 23.5186 17.9338 23.5186 15.822H19.5186ZM18.4772 16.9066L14.6574 18.9801L16.5657 22.4955L20.3854 20.422L18.4772 16.9066ZM14.6467 18.9859C14.1049 19.2843 13.6755 19.3746 13.3841 19.3746V23.3746C14.4786 23.3746 15.5672 23.0455 16.5764 22.4896L14.6467 18.9859ZM13.3841 9.44211C12.811 9.44211 12.1838 9.55904 11.5928 9.88516L13.5253 13.3874C13.4128 13.4494 13.3466 13.4421 13.3841 13.4421V9.44211ZM11.5993 9.88159C10.0722 10.7169 9.6103 12.3639 9.6103 13.7486H13.6103C13.6103 13.4385 13.6626 13.2887 13.6793 13.2516C13.686 13.2367 13.6806 13.2539 13.6517 13.2866C13.6214 13.3208 13.5764 13.3594 13.5188 13.3909L11.5993 9.88159ZM9.6103 13.7486V17.8955H13.6103V13.7486H9.6103ZM9.6103 17.8955C9.6103 19.2707 10.0719 20.9337 11.6174 21.7678L13.5172 18.2478C13.5756 18.2793 13.6212 18.3182 13.6517 18.3525C13.6807 18.3851 13.6861 18.4022 13.6792 18.3871C13.6621 18.3492 13.6103 18.2002 13.6103 17.8955H9.6103ZM11.6174 21.7678C13.103 22.5696 14.7408 22.1376 15.9434 21.4879L14.0422 17.9686C13.7312 18.1366 13.5242 18.1874 13.4261 18.1987C13.3375 18.209 13.3968 18.1828 13.5172 18.2478L11.6174 21.7678ZM15.9469 21.486L19.7667 19.4125L17.8584 15.897L14.0387 17.9705L15.9469 21.486ZM19.7632 19.4144C20.9422 18.7774 22.2811 17.6 22.2811 15.822H18.2811C18.2811 15.6099 18.369 15.5121 18.3409 15.5472C18.3039 15.5935 18.1716 15.7278 17.8619 15.8951L19.7632 19.4144ZM22.2811 15.822C22.2811 14.044 20.9422 12.8666 19.7632 12.2297L17.8619 15.7489C18.1716 15.9162 18.3039 16.0506 18.3409 16.0969C18.369 16.132 18.2811 16.0342 18.2811 15.822H22.2811ZM19.7667 12.2316L15.9469 10.1581L14.0387 13.6736L17.8584 15.747L19.7667 12.2316ZM15.948 10.1586C15.1602 9.73046 14.2865 9.44211 13.3841 9.44211V13.4421C13.4386 13.4421 13.6539 13.4644 14.0376 13.673L15.948 10.1586Z" fill="#7065F0" mask="url(#path-2-inside-1_14_283)"/>
</svg>
