<svg width="25" height="24" viewBox="0 0 25 24" fill="none" xmlns="http://www.w3.org/2000/svg">
<path d="M13.771 3.51014L15.531 7.03014C15.771 7.52014 16.411 7.99014 16.951 8.08014L20.141 8.61014C22.181 8.95014 22.661 10.4301 21.191 11.8901L18.711 14.3701C18.291 14.7901 18.061 15.6001 18.191 16.1801L18.901 19.2501C19.461 21.6801 18.171 22.6201 16.021 21.3501L13.031 19.5801C12.491 19.2601 11.601 19.2601 11.051 19.5801L8.06105 21.3501C5.92105 22.6201 4.62105 21.6701 5.18105 19.2501L5.89105 16.1801C6.02105 15.6001 5.79105 14.7901 5.37105 14.3701L2.89105 11.8901C1.43105 10.4301 1.90105 8.95014 3.94105 8.61014L7.13105 8.08014C7.66105 7.99014 8.30105 7.52014 8.54105 7.03014L10.301 3.51014C11.261 1.60014 12.821 1.60014 13.771 3.51014Z" fill="#FCD240"/>
</svg>
