<svg width="28" height="28" viewBox="0 0 28 28" fill="none" xmlns="http://www.w3.org/2000/svg">
<circle cx="14.4688" cy="13.916" r="13.5" fill="#7065F0"/>
<path d="M13.8438 19.3848C10.4812 19.3848 7.75 16.6535 7.75 13.291C7.75 9.92852 10.4812 7.19727 13.8438 7.19727C17.2063 7.19727 19.9375 9.92852 19.9375 13.291C19.9375 16.6535 17.2063 19.3848 13.8438 19.3848ZM13.8438 8.13477C11 8.13477 8.6875 10.4473 8.6875 13.291C8.6875 16.1348 11 18.4473 13.8438 18.4473C16.6875 18.4473 19 16.1348 19 13.291C19 10.4473 16.6875 8.13477 13.8438 8.13477Z" fill="white"/>
<path d="M19.5688 20.6598C19.5188 20.6598 19.4688 20.6535 19.4251 20.6473C19.1313 20.6098 18.6001 20.4098 18.3001 19.516C18.1438 19.0473 18.2001 18.5785 18.4563 18.2223C18.7126 17.866 19.1438 17.666 19.6376 17.666C20.2751 17.666 20.7751 17.9098 21.0001 18.341C21.2251 18.7723 21.1626 19.3223 20.8063 19.8535C20.3626 20.5223 19.8813 20.6598 19.5688 20.6598ZM19.1938 19.2223C19.3001 19.5473 19.4501 19.7098 19.5501 19.7223C19.6501 19.7348 19.8376 19.616 20.0313 19.3348C20.2126 19.066 20.2251 18.8723 20.1813 18.7848C20.1376 18.6973 19.9626 18.6035 19.6376 18.6035C19.4438 18.6035 19.3001 18.666 19.2188 18.7723C19.1438 18.8785 19.1313 19.041 19.1938 19.2223Z" fill="white"/>
</svg>
