<svg width="28" height="28" viewBox="0 0 28 28" fill="none" xmlns="http://www.w3.org/2000/svg">
<circle cx="13.7188" cy="14.416" r="13.5" fill="#7065F0"/>
<path d="M16.219 12.541L12.8856 16.291L11.2188 14.416M8.09375 18.0411V10.7911C8.09375 10.0911 8.09375 9.74078 8.22999 9.47339C8.34983 9.23819 8.54092 9.0471 8.77612 8.92726C9.04351 8.79102 9.39381 8.79102 10.0939 8.79102H17.3439C18.0439 8.79102 18.3935 8.79102 18.6609 8.92726C18.8961 9.0471 19.0878 9.23819 19.2076 9.47339C19.3438 9.74052 19.3438 10.0904 19.3438 10.7891V18.0433C19.3438 18.7419 19.3438 19.0913 19.2076 19.3584C19.0878 19.5936 18.8961 19.7851 18.6609 19.9049C18.3937 20.041 18.0444 20.041 17.3457 20.041H10.0918C9.39312 20.041 9.04325 20.041 8.77612 19.9049C8.54092 19.7851 8.34983 19.5936 8.22999 19.3584C8.09375 19.0911 8.09375 18.7412 8.09375 18.0411Z" stroke="white" stroke-linecap="round" stroke-linejoin="round"/>
</svg>
